<?xml version="1.0" encoding="UTF-8"?><svg xmlns="http://www.w3.org/2000/svg" id="Capa_2" data-name="Capa 2" viewBox="0 0 1107.9 230.22"><defs><style> .cls-1 { fill: #231f20; } </style></defs><g id="Layer_1" data-name="Layer 1"><g><g><path class="cls-1" d="M428.6,226.9c0-1.54,1.31-2,3.43-2.69,1.94-.8,2.46-.86,2.46-4.74v-22.23c0-3.31.4-3.14-5.03-3.14-3.89,0-3.6.11-4.34,2.34-1.49,4.57-2.74,6.86-5.2,6.34-2.92-.57-2-3.14-.34-9.32,1.09-3.89,2-4.69,4.06-4.69,1.71,0,2.63.4,4.8.4h18.57c2.4,0,3.37-.46,5.09-.46,2,0,2.97.69,4.12,4.46,1.94,6.8,2.34,9.2.17,9.6-2.69.51-4-1.37-5.71-6.46-.63-2-.23-2.23-4.97-2.23s-4.63-.17-4.63,3.14v22.12c0,3.89.29,4.06,2,4.63,1.89.51,3.54.8,3.54,2.69,0,2.86-1.89,2.74-9.09,2.74s-8.92.11-8.92-2.51h0Z"/><path class="cls-1" d="M460.89,220.79c0-5.09,3.66-9.26,10.69-9.26,4.51,0,6.34,1.09,7.37,1.09.74,0,.86-1.09.86-3.83,0-3.94-2.29-6-6-6-3.2,0-5.09.63-5.66,3.32-.4,1.77-1.03,2.46-2.69,2.46-2.06,0-3.6-.97-3.6-2.97,0-1.83.97-3.26,2.74-4.46,2.4-1.71,5.49-2.97,10.52-2.97,6.86,0,10.74,3.31,10.69,9.72-.06,4.92-.63,11.14-.63,13.26s.97,2.97,2.29,3.03c1.89.06,2.17-1.83,3.03-1.83s1.14.57,1.14,1.66c0,2-1.83,5.77-6,5.77-2.06,0-3.83-.97-4.8-2.86-.8-1.31-.8-2.11-1.37-2.11-.69,0-.91.91-1.89,2.11-1.26,1.49-2.91,2.97-7.2,2.97-6.52,0-9.49-3.66-9.49-9.09h0ZM479.69,217.3c0-2.63-2.4-2.92-5.6-2.92-4.29,0-6.57,2.46-6.57,5.77s1.94,4.97,5.49,4.97c4.17,0,6.69-3.31,6.69-7.83h-.01Z"/><path class="cls-1" d="M494.38,226.79c0-1.49.86-1.72,2.97-2.46,1.71-.51,1.71-1.2,1.83-5.26.06-1.54.11-11.32.11-16.23,0-2.57.06-5.66.06-7.32-.06-1.31-.29-1.71-1.37-1.71-1.77,0-4.4,1.54-4.4-.63,0-1.43,1.43-2.51,3.09-3.89,1.49-1.37,3.14-2.46,5.03-2.46,2.29,0,4.06,1.31,4.06,4.06,0,1.94-.23,4.8-.4,8-.11,5.14-.4,16-.29,20.86.06,3.37,0,3.83,1.94,4.4,1.54.63,2.69.74,2.69,2.34,0,2.29-1.66,2.8-7.37,2.8-5.94.06-7.94.17-7.94-2.51h-.01Z"/><path class="cls-1" d="M512.67,226.79c0-1.49.86-1.72,2.97-2.46,1.71-.51,1.71-1.2,1.83-5.26.06-1.54.11-11.32.11-16.23,0-2.57.06-5.66.06-7.32-.06-1.31-.29-1.71-1.37-1.71-1.77,0-4.4,1.54-4.4-.63,0-1.43,1.43-2.51,3.09-3.89,1.49-1.37,3.14-2.46,5.03-2.46,2.29,0,4.06,1.31,4.06,4.06,0,1.94-.23,4.8-.4,8-.11,5.14-.4,16-.29,20.86.06,3.37,0,3.83,1.94,4.4,1.54.63,2.69.74,2.69,2.34,0,2.29-1.66,2.8-7.37,2.8-5.94.06-7.94.17-7.94-2.51h-.01Z"/><path class="cls-1" d="M531.24,214.73c0-8.69,5.43-16.34,14.92-16.34,8.74,0,13.37,6,13.37,13.6,0,3.14-.69,3.71-4,3.71h-16.97c-.91,0-1.37.06-1.31,1.14.34,4.86,4.51,7.94,10.29,7.94,4.4,0,6.57-1.31,8.12-2.63.86-.74,1.26-1.2,1.89-1.2.92,0,1.09,1.14.74,2.34-1.54,3.89-5.71,6.86-12.17,6.86-8.92,0-14.86-6.4-14.86-15.43h-.02ZM553.41,210.67c0-3.83-2.51-7.94-7.72-7.94s-8.52,4.06-8.4,8.52c0,1.26.4,1.09,6.29,1.09,9.49,0,9.83.11,9.83-1.66h0Z"/><path class="cls-1" d="M564.73,227.13c0-1.43.97-1.89,2.8-2.4,1.71-.4,1.94-.86,2.06-4.51.11-1.77.11-11.14.11-13.49,0-1.43-.46-1.77-1.6-1.77-1.89,0-4.52,1.49-4.52-.51,0-1.49,1.49-2.63,3.37-3.83,1.49-.97,2.97-1.72,4.34-1.72,1.83,0,2.8.97,2.8,2.57,0,1.94-.4,3.77.4,3.77.69,0,.63-1.26,2.23-3.54,1.37-2,3.09-3.26,5.89-3.26,4.17,0,6.17,2.57,6.12,6.86,0,2.69-1.09,4.4-3.66,4.4-1.83,0-2.17-.69-2.23-2.11.11-1.77-.17-3.03-2.57-3.03-3.43,0-4.92,4.46-4.97,7.94-.06,2.4,0,5.09.06,7.43.06,3.37,0,3.83,2.69,4.4,2.74.63,4.06.57,4.06,2.57,0,2.29-1.72,2.4-8.69,2.4-6.69.06-8.69.46-8.69-2.17h0Z"/><path class="cls-1" d="M592.73,214.73c0-8.69,5.43-16.34,14.92-16.34,8.74,0,13.37,6,13.37,13.6,0,3.14-.69,3.71-4,3.71h-16.97c-.91,0-1.37.06-1.31,1.14.34,4.86,4.51,7.94,10.29,7.94,4.4,0,6.57-1.31,8.12-2.63.86-.74,1.26-1.2,1.89-1.2.92,0,1.09,1.14.74,2.34-1.54,3.89-5.71,6.86-12.17,6.86-8.92,0-14.86-6.4-14.86-15.43h-.02ZM614.9,210.67c0-3.83-2.51-7.94-7.72-7.94s-8.52,4.06-8.4,8.52c0,1.26.4,1.09,6.29,1.09,9.49,0,9.83.11,9.83-1.66h0Z"/><path class="cls-1" d="M627.64,227.24c-1.6-4.17-1.43-5.54.34-6.23,1.83-.74,2.69-.29,4.69,1.26,2.63,2.8,5.2,4,8.46,4,3.43,0,5.54-1.66,5.54-4.23,0-3.03-2.51-4.17-7.66-5.2-3.31-.69-7.77-1.43-9.89-3.77-1.26-1.31-2-3.03-2-5.37,0-5.6,4.69-9.26,10.97-9.2,3.89,0,5.66,1.03,7.09,2.12.63.57,1.09.86,1.71.86,1.26,0-.23-2.86,1.83-2.86,1.49,0,1.66.97,2.34,2.8,1.6,3.89,1.2,5.66-.23,6-1.66.57-2.69.06-4.4-1.26-2.11-2.23-5.03-3.71-8.29-3.71-3.49,0-5.54,1.83-5.54,4.06,0,2.51,2,3.2,6.12,4,5.77,1.09,9.14,1.94,11.37,4.34,1.37,1.43,2.23,3.2,2.23,6,0,5.89-4.69,9.26-10.86,9.26-3.54,0-5.77-.8-7.49-2.06-1.14-.74-1.6-1.26-2.23-1.26-1.37,0,.91,3.43-1.83,3.43-1.2,0-1.54-1.03-2.29-2.97h.02Z"/><path class="cls-1" d="M698.28,226.73c-.86-1.83-.74-2.97-1.54-2.97s-1.31,1.43-2.69,2.86c-1.54,1.66-4.12,2.92-7.77,2.92-8.34,0-12.52-6.69-12.52-15.66s5.37-15.66,13.32-15.66c3.83,0,6.12,1.2,7.83,2.86,1.89,1.77,2.11,2.97,2.69,2.97.51,0,.57-1.03.69-5.43.17-6.17-.06-6.8-1.66-6.8-2.11,0-4.69,1.43-4.69-.57,0-1.37,1.43-2.57,3.37-3.89,1.54-1.09,3.14-1.89,4.92-1.89,2,0,3.71,1.09,3.71,4.4,0,5.89-1.37,20.63-1.31,30.12,0,3.2,1.03,4.06,2.4,4.06,1.77.06,2.17-2.11,2.97-2.11.91,0,1.14.63,1.14,1.66,0,2.06-1.77,6.12-5.94,6.12-2.11,0-3.94-.97-4.92-2.97v-.02ZM696.85,213.3c-.4-5.2-2.97-10.34-8.92-10.12-5.6.29-8.11,4.92-7.77,11.2.34,5.89,3.26,9.89,8.63,9.6,5.32-.29,8.46-3.94,8.06-10.69h0Z"/><path class="cls-1" d="M712.16,214.73c0-8.69,5.43-16.34,14.92-16.34,8.74,0,13.37,6,13.37,13.6,0,3.14-.69,3.71-4,3.71h-16.97c-.91,0-1.37.06-1.31,1.14.34,4.86,4.51,7.94,10.29,7.94,4.4,0,6.57-1.31,8.12-2.63.86-.74,1.26-1.2,1.89-1.2.91,0,1.09,1.14.74,2.34-1.54,3.89-5.71,6.86-12.17,6.86-8.92,0-14.86-6.4-14.86-15.43h-.02ZM734.34,210.67c0-3.83-2.51-7.94-7.72-7.94s-8.52,4.06-8.4,8.52c0,1.26.4,1.09,6.29,1.09,9.49,0,9.83.11,9.83-1.66h0Z"/><path class="cls-1" d="M759.31,227.07c0-1.89,1.03-1.83,2.74-2.57,1.6-.69,1.89-1.14,3.26-4.57,3.2-7.89,7.03-17.83,8.86-22.46,1.09-2.8.97-3.2-.97-3.71-1.6-.34-3.49-.46-3.49-2.17,0-2.86,2-2.57,8.69-2.57,10.52,0,8.12-.46,10.34,6.69,2.11,6.17,5.37,14.92,7.94,22.97,1.54,4.63,1.6,5.14,3.43,5.72,1.66.69,2.74.8,2.69,2.46-.06,2.86-1.49,2.63-8.46,2.63s-8.74.4-8.74-2.34c0-1.37,1.2-1.43,3.09-2,2.46-.57,2.29-.91.97-4.97-1.26-4-.8-4.23-3.77-4.23h-11.37c-2.74,0-2.57.06-4.11,4.46-1.49,4.17-2,4.51.63,4.97,1.37.46,2.8.29,2.8,1.83,0,2.51-1.71,2.34-7.89,2.34-4.51-.06-6.63.29-6.63-2.46v-.02ZM784.74,212.33c2.63,0,2.8-.57,1.94-3.14-1.89-5.31-3.31-9.32-4.34-12.46-.86-2.57-1.03-3.03-1.83-3.03s-.91.74-1.6,2.57c-1.03,2.86-4.12,10.69-5.26,13.72-.8,2.17-.63,2.34,1.54,2.34h9.55Z"/><path class="cls-1" d="M806.74,227.07c0-1.54.97-1.94,2.8-2.57,1.89-.74,2.06-1.2,2.06-5.09,0-4.57.06-8.63.06-12.63,0-1.43-.29-1.71-1.31-1.71-2,0-4.52,1.26-4.52-.91,0-1.37,1.49-2.4,3.43-3.6,1.43-.91,2.86-1.66,4.29-1.66,2,0,2.97.97,2.97,2.63,0,1.49-.4,3.37.4,3.37.69,0,.63-1.14,2.57-3.32,1.54-1.71,3.89-3.14,7.49-3.14,6,0,9.54,3.49,9.54,9.14,0,3.77-.23,7.54-.23,11.77s0,4.8,1.94,5.32c1.6.57,2.69,1.03,2.69,2.34,0,2.8-2.06,2.29-7.66,2.29-5.6.06-7.14-.23-7.14-2.4,0-1.6,1.03-1.77,2.57-2.29,1.66-.69,1.66-1.2,1.66-5.09v-9.32c0-3.77-1.6-6.12-5.32-6.12-5.66,0-7.6,5.26-7.6,10.23l-.06,5.43c0,3.83-.11,4.17,1.66,4.8,1.26.57,2.51.74,2.51,2.29,0,2.23-1.6,2.46-6.91,2.46-5.94.06-7.89.51-7.89-2.23h0Z"/><path class="cls-1" d="M844.28,227.01c0-1.43,1.03-1.77,2.86-2.34,1.66-.46,1.94-.91,2.06-5.2.06-2.69.17-9.43.17-12.97,0-1.31-.29-1.71-1.2-1.71-1.72,0-4.06,1.26-4.06-.51,0-1.26,1.43-2.4,3.26-3.54,1.6-1.09,2.97-1.71,4.74-1.71,2.8,0,3.77,1.14,3.77,3.31s-.74,3.89-.8,6.63c-.06,2.97-.06,6.52,0,11.09.06,3.54.06,3.94,1.83,4.51,1.26.57,2.46.69,2.46,2.34,0,2.17-1.66,2.4-7.09,2.4-6,.06-8,.46-8-2.29h0ZM847.43,190.9c-.06-2.11,1.54-3.83,4.63-3.83s4.57,1.54,4.63,3.66c0,2.06-1.43,3.49-4.52,3.49-2.86.06-4.74-1.2-4.74-3.32Z"/><path class="cls-1" d="M863.37,226.79c0-1.6.97-1.72,2.74-2.34,2.06-.8,2.11-1.37,2.11-5.31l.06-12.34c0-1.43-.34-1.71-1.37-1.71-2,0-4.52,1.2-4.52-.91,0-1.31,1.49-2.34,3.37-3.54,1.43-.97,2.92-1.72,4.34-1.72,2.06,0,2.92.91,2.92,2.86s-.23,3.31.4,3.31c.74,0,.63-1.2,2.63-3.49,1.54-1.71,4-3.14,7.6-3.14s5.77,1.2,7.09,3.03c1.37,2,1.03,3.83,1.77,3.83.74-.06.69-1.6,2.91-3.89,1.94-2,4.12-2.92,7.26-2.92,5.54-.06,9.09,3.37,8.97,9.03-.06,4.57-.17,8.06-.17,12.17,0,3.77,0,4.46,1.89,4.97,1.66.57,2.69,1.09,2.69,2.29,0,2.8-2,2.34-7.54,2.34-5.71.06-7.14-.23-7.14-2.46,0-1.72,1.09-1.83,2.57-2.23,1.66-.57,1.77-1.31,1.77-4.92v-9.32c0-3.83-1.83-6.06-5.43-6.06-5.37,0-7.37,4.57-7.49,9.6v6.06c0,3.66-.11,4.17,1.6,4.74,1.37.57,2.46.91,2.46,2.23,0,2.8-2,2.34-7.09,2.34-5.66.06-7.14-.23-7.14-2.46,0-1.72,1.14-1.83,2.63-2.29,1.72-.57,1.72-1.26,1.72-5.43v-9.03c0-3.77-1.94-5.83-5.37-5.83-5.66,0-7.66,5.26-7.66,10.23v5.54c0,3.54-.11,3.89,1.6,4.51,1.26.57,2.51.69,2.51,2.23,0,2.29-1.54,2.51-6.86,2.51-5.89.06-7.83.17-7.83-2.51v.03Z"/><path class="cls-1" d="M919.49,220.79c0-5.09,3.66-9.26,10.69-9.26,4.51,0,6.34,1.09,7.37,1.09.74,0,.86-1.09.86-3.83,0-3.94-2.29-6-6-6-3.2,0-5.09.63-5.66,3.32-.4,1.77-1.03,2.46-2.69,2.46-2.06,0-3.6-.97-3.6-2.97,0-1.83.97-3.26,2.74-4.46,2.4-1.71,5.49-2.97,10.52-2.97,6.86,0,10.74,3.31,10.69,9.72-.06,4.92-.63,11.14-.63,13.26s.97,2.97,2.29,3.03c1.89.06,2.17-1.83,3.03-1.83s1.14.57,1.14,1.66c0,2-1.83,5.77-6,5.77-2.06,0-3.83-.97-4.8-2.86-.8-1.31-.8-2.11-1.37-2.11-.69,0-.91.91-1.89,2.11-1.26,1.49-2.91,2.97-7.2,2.97-6.52,0-9.49-3.66-9.49-9.09h0ZM938.29,217.3c0-2.63-2.4-2.92-5.6-2.92-4.29,0-6.57,2.46-6.57,5.77s1.94,4.97,5.49,4.97c4.17,0,6.69-3.31,6.69-7.83h-.01Z"/><path class="cls-1" d="M952.52,214.33c0-8.63,5.6-15.95,14.34-15.95,3.49,0,5.37,1.03,6.97,2.34.69.69.97,1.14,1.71,1.09.69,0,.23-1.14.4-2.23.29-.63.57-.86,1.37-.91,1.72-.06,1.94,1.77,3.14,4.92,1.66,4.63,1.43,6.17-1.2,6.74-2.23.46-3.14-.97-4.69-3.09-2.06-2.57-3.89-3.77-7.26-3.77-5.6,0-8.57,4.4-8.57,9.6.06,6.46,3.6,11.54,10.34,11.54,4.51,0,7.43-2.06,9.43-4.23.51-.57.74-.8,1.26-.8.69,0,1.03.51.86,1.31-1.37,5.03-5.83,9.14-13.26,9.14-9.14,0-14.86-6.23-14.86-15.72l.02.02Z"/><path class="cls-1" d="M986.41,227.01c0-1.43,1.03-1.77,2.86-2.34,1.66-.46,1.94-.91,2.06-5.2.06-2.69.17-9.43.17-12.97,0-1.31-.29-1.71-1.2-1.71-1.72,0-4.06,1.26-4.06-.51,0-1.26,1.43-2.4,3.26-3.54,1.6-1.09,2.97-1.71,4.74-1.71,2.8,0,3.77,1.14,3.77,3.31s-.74,3.89-.8,6.63c-.06,2.97-.06,6.52,0,11.09.06,3.54.06,3.94,1.83,4.51,1.26.57,2.46.69,2.46,2.34,0,2.17-1.66,2.4-7.09,2.4-6,.06-8,.46-8-2.29h0ZM989.55,190.9c-.06-2.11,1.54-3.83,4.63-3.83s4.57,1.54,4.63,3.66c0,2.06-1.43,3.49-4.52,3.49-2.86.06-4.74-1.2-4.74-3.32Z"/><path class="cls-1" d="M1004.98,214.33c0-8.86,5.31-15.89,15.09-15.83,9.66.06,14.69,6.86,14.69,15.83s-5.14,15.72-14.86,15.72-14.92-6.74-14.92-15.72h0ZM1028.58,213.87c-.74-6.63-3.71-10.57-9.43-10.17-5.54.29-8.52,4.92-7.83,11.32.63,5.94,4,10.12,9.6,9.72,5.71-.34,8.23-4.97,7.66-10.86h0ZM1018.7,189.47c2.4-4.4,2.17-4.92,5.66-4.92,4.12,0,1.54,2-.17,4.57-2.86,4.23-2.69,4.69-5.71,4.69-3.31,0-1.14-1.77.23-4.34h-.01Z"/><path class="cls-1" d="M1039.67,227.07c0-1.54.97-1.94,2.8-2.57,1.89-.74,2.06-1.2,2.06-5.09,0-4.57.06-8.63.06-12.63,0-1.43-.29-1.71-1.31-1.71-2,0-4.52,1.26-4.52-.91,0-1.37,1.49-2.4,3.43-3.6,1.43-.91,2.86-1.66,4.29-1.66,2,0,2.97.97,2.97,2.63,0,1.49-.4,3.37.4,3.37.69,0,.63-1.14,2.57-3.32,1.54-1.71,3.89-3.14,7.49-3.14,6,0,9.54,3.49,9.54,9.14,0,3.77-.23,7.54-.23,11.77s0,4.8,1.94,5.32c1.6.57,2.69,1.03,2.69,2.34,0,2.8-2.06,2.29-7.66,2.29-5.6.06-7.14-.23-7.14-2.4,0-1.6,1.03-1.77,2.57-2.29,1.66-.69,1.66-1.2,1.66-5.09v-9.32c0-3.77-1.6-6.12-5.32-6.12-5.66,0-7.6,5.26-7.6,10.23l-.06,5.43c0,3.83-.11,4.17,1.66,4.8,1.26.57,2.51.74,2.51,2.29,0,2.23-1.6,2.46-6.91,2.46-5.94.06-7.89.51-7.89-2.23h0Z"/></g><path class="cls-1" d="M121.85,165.07l-12.25-33.99h-48.79l-11.33,33.99H0L40.46,39.52C47.86,16.63,67.05,2.06,90.17,2.06s42.08,14.34,49.71,36.77l42.78,126.24h-60.81,0ZM107.74,73.74c0-11.79-9.71-21.5-21.5-21.5s-21.74,9.71-21.74,21.5,9.94,21.73,21.74,21.73,21.5-9.71,21.5-21.73Z"/><path class="cls-1" d="M183.22,148.63c0-31.58,2.42-103.3,18.64-128.95,4.6-7.02,11.18-12.72,19.96-12.72,22.59,0,31.14,32.9,35.53,50.22,5.26,20.84,12.72,64.7,22.59,81.14.66.88,3.07,4.82,4.17,4.82.66,0,2.85-4.38,3.29-5.26,5.7-13.6,6.36-39.48,6.36-54.61,0-25.66-1.97-51.32-4.82-76.98l21.93-3.07c3.07,27.2,4.82,54.39,4.82,81.81,0,21.49-.22,80.05-31.58,80.05-22.81,0-31.36-32.68-35.75-50.22-2.63-10.08-4.83-19.96-7.02-30.05-3.29-14.91-6.14-30.48-12.28-44.74-1.53-3.51-3.73-8.55-6.8-10.96-14.91,16.01-17.1,96.06-17.1,119.53,0,3.29,0,6.58.22,9.87l-21.93.88c-.22-3.51-.22-7.24-.22-10.75h0Z"/><path class="cls-1" d="M349.46,9.23v155.84h-20.12V9.23h20.12Z"/><path class="cls-1" d="M421.9,146.06c-4.88,6.83-13.87,17.22-23.81,17.94-4.81.41-9.43-1.74-13.65-6.25-11.68-12.48-12.26-39.96-1.65-79.47,11.29-42.15,35.03-74.08,51.87-69.43,15.56,4.17,24.35,40.73,12.09,86.5-.27,1.02.33,2.08,1.36,2.35.17.05.33.07.5.07.84,0,1.62-.56,1.85-1.42,2.5-9.34,4.12-18.53,5.01-27.33,12.31-38.1,33.9-64.61,49.22-60.18,24.54,6.99,22.47,50.02,13.23,84.73-7.65,28.77-30.02,69.81-49.09,71.33-7.27.55-13.5-4.84-18.76-15.97,14.33-10.15,28.62-34.5,36.93-65.51.27-1.02-.33-2.08-1.36-2.35-1.02-.3-2.08.34-2.34,1.36-10.96,40.88-34.01,71.79-50.31,67.39-16.32-4.38-20.85-42.63-9.88-83.52.27-1.02-.33-2.08-1.36-2.35-1.01-.3-2.07.33-2.35,1.36-9.4,35.07-7.88,66.54,2.5,80.73v.02Z"/><path class="cls-1" d="M527.33,84.62c0-54.8,28.44-84.62,80.69-84.62s79.07,29.36,79.07,84.62-27.28,83.7-79.07,83.7-80.69-29.13-80.69-83.7ZM630.44,84.62c0-15.26-9.25-25.43-23.12-25.43s-23.35,9.71-23.35,25.2,8.56,24.74,23.35,24.74,23.12-9.25,23.12-24.51Z"/><path class="cls-1" d="M823.79,82.99c0,4.78-1.12,9.29-3.35,13.53-2.24,4.24-5.28,7.75-9.13,10.52,3.85,2.78,6.9,6.28,9.13,10.52s3.35,8.75,3.35,13.53c0,8.63-3.24,15.88-9.71,21.73l7.63,6.7c.93.93,1.23,2.08.93,3.47-.31,1.39-1.08,2.08-2.31,2.08h-57.34c-1.24,0-2.05-.69-2.43-2.08-.39-1.39-.04-2.55,1.04-3.47l9.48-8.09c-5.55-5.7-8.32-12.48-8.32-20.35,0-4.78,1.11-9.28,3.35-13.53,2.23-4.24,5.35-7.75,9.36-10.52-4.01-2.78-7.13-6.28-9.36-10.52-2.24-4.24-3.35-8.75-3.35-13.53s1.19-9.6,3.58-13.99c2.39-4.39,5.59-7.9,9.6-10.52,0-.15-.04-.27-.12-.35-.08-.08-.2-.12-.35-.12-5.24,3.7-11.18,5.55-17.8,5.55s-12.95-2-18.5-6.01c-.46.46-.85.77-1.16.93,4.16,2.62,7.43,6.13,9.83,10.52,2.39,4.39,3.59,9.06,3.59,13.99,0,3.09-.5,6.13-1.5,9.13s-2.47,5.78-4.39,8.33c-1.93,2.54-4.2,4.74-6.82,6.59,4.01,2.78,7.13,6.28,9.36,10.52s3.35,8.75,3.35,13.53c0,8.33-3.01,15.34-9.02,21.04l8.56,7.4c.93.93,1.19,2.08.81,3.47-.39,1.39-1.12,2.08-2.2,2.08h-57.57c-1.08,0-1.81-.69-2.2-2.08-.39-1.39-.04-2.55,1.04-3.47l8.55-7.4c-6.17-5.7-9.25-12.72-9.25-21.04.15-4.78,1.31-9.28,3.47-13.53,2.16-4.24,5.24-7.75,9.25-10.52-4.01-2.78-7.09-6.28-9.25-10.52s-3.32-8.75-3.47-13.53c.15-4.93,1.39-9.6,3.7-13.99,2.31-4.39,5.55-7.9,9.71-10.52-4.16-2.78-7.4-6.36-9.71-10.75s-3.55-9.05-3.7-13.99c.15-8.33,3.2-15.38,9.13-21.16s13.14-8.59,21.62-8.44c6.78,0,12.87,2,18.27,6.01,5.55-4.01,11.71-6.01,18.5-6.01s12.56,1.85,17.8,5.55c5.39-3.7,11.33-5.55,17.8-5.55,8.32-.15,15.49,2.66,21.5,8.44s9.02,12.83,9.02,21.16c0,4.93-1.16,9.6-3.47,13.99-2.31,4.39-5.55,7.98-9.71,10.75,4.16,2.62,7.4,6.13,9.71,10.52,2.31,4.39,3.47,9.06,3.47,13.99h0Z"/><path class="cls-1" d="M1017.68,3.22c52.61,3.17,90.22,35.07,90.22,89.8,0,42.68-27.04,72.06-70.36,72.06-39.09,0-65.71-19.86-65.71-60.85,0-24.3,7.61-50.29,31.06-61.7,7.18-3.38,15-5.28,22.82-5.28,30.43,0,39.09,26.84,40.78,52.41l-21.13,1.69c-.84-12.68-2.75-32.96-19.65-32.96-25.15,0-32.75,24.93-32.75,45.85,0,29.16,17.32,39.73,44.58,39.73,31.69,0,49.23-19.86,49.23-50.92,0-43.1-28.74-66.35-69.94-68.67l.84-21.13h0v-.03Z"/><path class="cls-1" d="M839.57,11.31c12.25-1.85,26.82-3.24,42.78-3.24,28.9,0,49.48,6.7,63.12,19.42,13.87,12.72,21.97,30.75,21.97,55.96s-7.86,46.24-22.43,60.58c-14.57,14.57-38.62,22.43-68.91,22.43-14.34,0-26.36-.69-36.53-1.85V11.31h0ZM859.69,149.12c5.09.93,12.49,1.16,20.35,1.16,43.01,0,66.36-24.05,66.36-66.13.23-36.76-20.58-60.12-63.12-60.12-10.4,0-18.27.93-23.59,2.08v123.01Z"/></g></g></svg>