<svg xmlns="http://www.w3.org/2000/svg" width="479" height="109" viewBox="0 0 479 109" fill="none"><g clip-path="url(#clip0_2032_420)"><path d="M52.62 71.2901L47.33 56.6101H26.26L21.37 71.2901H0L17.47 17.0701C20.67 7.18014 28.96 0.890137 38.94 0.890137C48.92 0.890137 57.11 7.08014 60.41 16.7701L78.88 71.2901H52.62ZM46.53 31.8501C46.53 26.7601 42.34 22.5601 37.24 22.5601C32.14 22.5601 27.85 26.7501 27.85 31.8501C27.85 36.9501 32.14 41.2401 37.24 41.2401C42.34 41.2401 46.53 37.0501 46.53 31.8501Z" fill="#231F20"/><path d="M79.1301 64.1901C79.1301 50.5501 80.1701 19.5801 87.1801 8.50014C89.1701 5.47014 92.0101 3.01014 95.8001 3.01014C105.55 3.01014 109.25 17.2201 111.14 24.7001C113.41 33.7001 116.63 52.6401 120.89 59.7401C121.17 60.1201 122.22 61.8201 122.69 61.8201C122.97 61.8201 123.92 59.9301 124.11 59.5501C126.57 53.6801 126.86 42.5001 126.86 35.9701C126.86 24.8901 126.01 13.8101 124.78 2.72014L134.25 1.39014C135.57 13.1401 136.33 24.8801 136.33 36.7201C136.33 46.0001 136.24 71.2901 122.69 71.2901C112.84 71.2901 109.15 57.1801 107.25 49.6001C106.11 45.2401 105.17 40.9801 104.22 36.6201C102.8 30.1801 101.57 23.4601 98.9201 17.3001C98.2601 15.7801 97.3101 13.6101 95.9801 12.5601C89.5401 19.4701 88.5901 54.0501 88.5901 64.1801C88.5901 65.6001 88.5901 67.0201 88.6801 68.4401L79.2101 68.8201C79.1201 67.3001 79.1201 65.6901 79.1201 64.1801L79.1301 64.1901Z" fill="#231F20"/><path d="M150.92 3.99023V71.2902H142.23V3.99023H150.92Z" fill="#231F20"/><path d="M182.2 63.08C180.09 66.03 176.21 70.52 171.92 70.83C169.84 71.01 167.85 70.08 166.03 68.13C160.99 62.74 160.74 50.87 165.32 33.81C170.2 15.61 180.45 1.82003 187.72 3.83003C194.44 5.63003 198.24 21.42 192.94 41.19C192.82 41.63 193.08 42.09 193.53 42.2C193.6 42.22 193.67 42.23 193.74 42.23C194.1 42.23 194.44 41.99 194.54 41.62C195.62 37.59 196.32 33.62 196.7 29.82C202.01 13.37 211.34 1.92003 217.96 3.83003C228.56 6.85003 227.66 25.43 223.68 40.42C220.38 52.84 210.71 70.57 202.48 71.23C199.34 71.47 196.65 69.14 194.38 64.33C200.57 59.95 206.74 49.43 210.33 36.04C210.45 35.6 210.19 35.14 209.74 35.03C209.3 34.9 208.84 35.18 208.73 35.62C204 53.27 194.04 66.62 187 64.72C179.95 62.83 178 46.31 182.73 28.65C182.85 28.21 182.59 27.75 182.14 27.64C181.71 27.51 181.25 27.78 181.13 28.23C177.07 43.37 177.73 56.96 182.21 63.1L182.2 63.08Z" fill="#231F20"/><path d="M227.74 36.55C227.74 12.89 240.02 0 262.59 0C285.16 0 296.74 12.68 296.74 36.55C296.74 60.42 284.96 72.7 262.59 72.7C240.22 72.7 227.74 60.12 227.74 36.55ZM272.27 36.55C272.27 29.96 268.28 25.57 262.29 25.57C256.3 25.57 252.2 29.76 252.2 36.45C252.2 43.14 255.89 47.13 262.29 47.13C268.69 47.13 272.27 43.14 272.27 36.55Z" fill="#231F20"/><path d="M355.77 35.8398C355.77 37.8998 355.29 39.8498 354.32 41.6798C353.35 43.5098 352.04 45.0298 350.38 46.2198C352.04 47.4198 353.36 48.9298 354.32 50.7598C355.28 52.5898 355.77 54.5398 355.77 56.5998C355.77 60.3298 354.37 63.4598 351.58 65.9898L354.88 68.8898C355.28 69.2898 355.41 69.7898 355.28 70.3898C355.15 70.9898 354.81 71.2898 354.28 71.2898H329.52C328.99 71.2898 328.64 70.9898 328.47 70.3898C328.3 69.7898 328.45 69.2898 328.92 68.8898L333.01 65.3998C330.61 62.9398 329.42 60.0098 329.42 56.6098C329.42 54.5498 329.9 52.5998 330.87 50.7698C331.83 48.9398 333.18 47.4198 334.91 46.2298C333.18 45.0298 331.83 43.5198 330.87 41.6898C329.9 39.8598 329.42 37.9098 329.42 35.8498C329.42 33.7898 329.93 31.7098 330.97 29.8098C332 27.9098 333.38 26.3998 335.11 25.2698C335.11 25.2098 335.09 25.1498 335.06 25.1198C335.03 25.0898 334.98 25.0698 334.91 25.0698C332.65 26.6698 330.08 27.4698 327.22 27.4698C324.36 27.4698 321.63 26.6098 319.23 24.8698C319.03 25.0698 318.86 25.1998 318.73 25.2698C320.53 26.3998 321.94 27.9198 322.97 29.8098C324 31.7098 324.52 33.7198 324.52 35.8498C324.52 37.1798 324.3 38.4998 323.87 39.7898C323.44 41.0898 322.8 42.2898 321.97 43.3898C321.14 44.4898 320.16 45.4398 319.02 46.2398C320.75 47.4398 322.1 48.9498 323.06 50.7798C324.02 52.6098 324.51 54.5598 324.51 56.6198C324.51 60.2198 323.21 63.2498 320.62 65.7098L324.32 68.8998C324.72 69.2998 324.83 69.7998 324.67 70.3998C324.5 70.9998 324.19 71.2998 323.72 71.2998H298.86C298.39 71.2998 298.08 70.9998 297.91 70.3998C297.74 69.7998 297.89 69.2998 298.36 68.8998L302.05 65.7098C299.39 63.2498 298.06 60.2198 298.06 56.6198C298.12 54.5598 298.62 52.6098 299.56 50.7798C300.49 48.9498 301.82 47.4298 303.55 46.2398C301.82 45.0398 300.49 43.5298 299.56 41.6998C298.63 39.8698 298.13 37.9198 298.06 35.8598C298.12 33.7298 298.66 31.7198 299.66 29.8198C300.66 27.9198 302.06 26.4098 303.85 25.2798C302.05 24.0798 300.65 22.5298 299.66 20.6398C298.66 18.7398 298.13 16.7298 298.06 14.5998C298.12 10.9998 299.44 7.95977 302 5.45977C304.56 2.95977 307.67 1.74977 311.34 1.81977C314.27 1.81977 316.9 2.68977 319.23 4.41977C321.63 2.68977 324.29 1.81977 327.22 1.81977C330.15 1.81977 332.64 2.61977 334.91 4.21977C337.24 2.61977 339.8 1.81977 342.6 1.81977C346.19 1.75977 349.29 2.96977 351.89 5.45977C354.49 7.95977 355.78 10.9998 355.78 14.5998C355.78 16.7298 355.28 18.7398 354.28 20.6398C353.28 22.5398 351.88 24.0798 350.09 25.2798C351.89 26.4098 353.28 27.9298 354.28 29.8198C355.28 31.7098 355.78 33.7298 355.78 35.8598L355.77 35.8398Z" fill="#231F20"/><path d="M439.5 1.39014C462.22 2.76014 478.46 16.5401 478.46 40.1701C478.46 58.6001 466.78 71.2901 448.07 71.2901C431.19 71.2901 419.69 62.7101 419.69 45.0101C419.69 34.5201 422.98 23.2901 433.1 18.3701C436.2 16.9101 439.58 16.0901 442.96 16.0901C456.1 16.0901 459.84 27.6801 460.57 38.7201L451.44 39.4501C451.08 33.9801 450.25 25.2201 442.95 25.2201C432.09 25.2201 428.81 35.9901 428.81 45.0201C428.81 57.6101 436.29 62.1801 448.06 62.1801C461.75 62.1801 469.32 53.6001 469.32 40.1901C469.32 21.5801 456.91 11.5401 439.12 10.5301L439.48 1.41014L439.5 1.39014Z" fill="#231F20"/><path d="M362.58 4.89023C367.87 4.09023 374.16 3.49023 381.05 3.49023C393.53 3.49023 402.42 6.39023 408.31 11.8802C414.3 17.3702 417.8 25.1602 417.8 36.0502C417.8 46.9402 414.41 56.0202 408.11 62.2102C401.82 68.5002 391.43 71.9002 378.35 71.9002C372.16 71.9002 366.97 71.6002 362.57 71.1002V4.89023H362.58ZM371.27 64.4002C373.47 64.8002 376.66 64.9002 380.06 64.9002C398.63 64.9002 408.72 54.5202 408.72 36.3402C408.82 20.4602 399.83 10.3802 381.46 10.3802C376.97 10.3802 373.57 10.7802 371.27 11.2802V64.4002Z" fill="#231F20"/><path d="M162.91 101.31C162.34 99.0598 162.39 98.3798 163.7 98.1898C164.84 97.9998 165.06 98.5198 165.71 99.1698C167.36 100.99 169.4 102.02 171.68 102.02C173.74 102.02 175.45 101.04 175.45 99.0098C175.45 96.6498 174.01 95.9198 169.92 95.0998C165.74 94.3098 163.03 93.0698 163.03 89.4898C163.03 86.0998 165.61 84.0898 169.38 84.0898C171.28 84.0898 172.74 84.5198 173.94 85.6098C174.43 85.9898 174.54 86.1199 174.78 86.1199C175.29 86.1199 174.48 84.3298 175.51 84.2498C176.38 84.1898 176.51 84.7098 177.14 86.1498C177.82 87.8298 178.06 89.0298 177.09 89.3498C176.2 89.6498 175.68 89.5698 174.97 88.8398C173.32 86.9398 171.66 86.1498 169.41 86.1498C167.16 86.1498 165.78 87.1498 165.78 88.9198C165.78 90.6898 167.35 91.3298 170.72 91.9598C175.79 92.9098 178.07 94.2898 178.07 98.2798C178.07 101.92 175.36 103.98 171.67 103.98C169.58 103.98 168.12 103.36 166.76 102.43C165.97 101.92 165.76 101.62 165.38 101.7C164.73 101.83 165.98 103.82 164.67 103.87C163.61 103.93 163.48 103.25 162.93 101.32L162.91 101.31Z" fill="#231F20"/><path d="M182.6 99.1401C182.6 97.8401 182.74 96.2101 182.74 94.5001C182.77 92.0601 182.85 92.2201 181.74 92.2201C180.41 92.2201 180.25 91.8401 180.25 91.0801C180.25 89.7801 181.47 90.2401 183.04 89.4001C184.18 88.8001 184.34 87.3701 185.18 87.3701C185.64 87.3701 185.83 87.6401 185.83 88.8101C185.83 89.8901 185.88 89.6201 188.03 89.6201C190.18 89.6201 190.82 89.5701 190.82 90.3801C190.82 90.7301 190.77 90.9501 190.74 91.4601C190.71 92.4101 189.9 92.2501 186.89 92.2501C185.29 92.2501 185.64 92.5001 185.62 95.1801C185.62 96.4301 185.59 97.6801 185.59 98.4601C185.59 100.11 186.19 101.23 188.03 101.23C189.28 101.23 190.06 100.5 190.58 100.5C190.85 100.5 191.07 100.66 191.04 101.2C191.04 102.61 189.36 103.97 187.27 103.97C184.15 103.97 182.6 102.02 182.6 99.1401Z" fill="#231F20"/><path d="M193.199 96.5102C193.199 92.3102 195.719 88.9702 200.359 89.0002C204.939 89.0302 207.329 92.2502 207.329 96.5102C207.329 100.77 204.889 103.97 200.279 103.97C195.669 103.97 193.199 100.77 193.199 96.5102ZM204.399 96.2902C204.049 93.1402 202.639 91.2702 199.919 91.4602C197.289 91.5902 195.879 93.7902 196.199 96.8302C196.499 99.6502 198.099 101.63 200.759 101.44C203.469 101.28 204.669 99.0802 204.389 96.2902H204.399Z" fill="#231F20"/><path d="M209.96 107.76C209.96 106.68 210.48 106.68 211.37 106.35C212.18 106.08 212.21 105.75 212.21 103.39L212.24 93.3502C212.24 92.3702 212.16 92.0502 211.53 92.0502C210.61 92.0502 209.36 92.7602 209.33 91.7302C209.33 90.9702 210.09 90.4602 211.04 89.8302C211.69 89.4202 212.34 89.0402 212.97 89.0402C213.84 89.0402 214.3 89.5302 214.3 90.2902C214.3 91.2702 214.16 91.9702 214.49 91.9702C214.9 91.9702 214.98 91.3502 215.76 90.4802C216.57 89.4502 217.9 88.6602 219.69 88.6602C223.41 88.6602 225.71 91.6402 225.71 95.8702C225.71 100.1 223.57 103.49 219.47 103.49C216.38 103.49 215.62 101.4 215.16 101.43C214.64 101.46 214.75 102.38 214.78 104.17C214.81 106.18 214.78 106.34 215.7 106.56C216.59 106.86 217.22 106.94 217.22 107.86C217.22 108.78 216.49 108.94 214.51 108.94C211.93 108.97 209.95 108.94 209.95 107.75L209.96 107.76ZM222.77 96.0502C222.63 93.2002 221.22 91.2202 218.67 91.3002C215.93 91.4302 214.74 93.9802 214.87 96.2902C215.03 99.6302 216.61 101.23 219.13 101.15C221.6 101.07 222.9 98.9502 222.77 96.0502Z" fill="#231F20"/><path d="M235.559 102.45C235.559 101.72 236.179 101.5 237.269 101.23C238.059 101.04 238.079 100.82 238.109 98.9201C238.139 96.0501 238.139 91.3501 238.159 88.6701C238.189 87.6401 238.019 87.2901 237.099 87.0401C236.229 86.8001 235.639 86.7201 235.639 85.7401C235.639 84.6501 236.099 84.5201 237.569 84.5201H241.609C242.829 84.5201 243.239 84.8701 243.639 85.9301C244.559 88.2601 246.379 92.9301 247.439 96.6701C247.679 97.7801 247.709 98.5701 248.169 98.5701C248.659 98.5701 248.579 97.7801 249.089 96.2101C250.929 91.5701 249.599 94.5601 253.019 86.0901C253.509 84.6301 253.779 84.5201 255.029 84.5201H258.769C260.099 84.4901 260.559 84.7901 260.559 85.9601C260.559 86.7501 259.769 86.8001 258.769 87.0201C258.149 87.2901 257.979 87.7501 258.009 88.6201C258.059 92.5001 258.059 96.4601 258.059 99.2801C258.059 100.91 258.359 101.04 259.119 101.23C259.989 101.47 260.529 101.58 260.529 102.59C260.529 103.78 259.259 103.62 256.619 103.62C253.979 103.62 253.119 103.7 253.119 102.35C253.119 101.81 253.609 101.62 254.339 101.4C254.859 101.18 255.129 100.97 255.149 99.7701C255.179 97.3601 255.199 92.7701 255.119 89.0601C255.089 88.0601 255.009 87.6801 254.549 87.6801C254.089 87.6801 254.089 88.2201 253.869 89.0901C252.489 93.3501 250.399 98.2001 249.149 101.84C248.799 103.55 248.819 103.74 247.439 103.74C246.439 103.74 246.109 103.36 245.869 102.49C244.919 99.8101 242.399 91.8801 241.309 88.8201C241.119 88.0901 241.009 87.7101 240.629 87.7101C240.279 87.7101 240.119 88.1401 240.119 89.0901C240.119 90.8501 239.979 96.8501 240.089 99.4801C240.119 100.67 239.929 101.27 240.959 101.51C242.039 101.89 242.339 102.02 242.339 102.73C242.339 103.76 241.039 103.68 238.619 103.68C236.609 103.68 235.529 103.71 235.529 102.46L235.559 102.45Z" fill="#231F20"/><path d="M262.899 96.5102C262.899 92.3102 265.419 88.9702 270.059 89.0002C274.639 89.0302 277.029 92.2502 277.029 96.5102C277.029 100.77 274.589 103.97 269.979 103.97C265.369 103.97 262.899 100.77 262.899 96.5102ZM274.099 96.2902C273.749 93.1402 272.339 91.2702 269.619 91.4602C266.989 91.5902 265.579 93.7902 265.899 96.8302C266.199 99.6502 267.799 101.63 270.459 101.44C273.169 101.28 274.369 99.0802 274.089 96.2902H274.099Z" fill="#231F20"/><path d="M281.129 99.1401C281.129 97.8401 281.269 96.2101 281.269 94.5001C281.299 92.0601 281.379 92.2201 280.269 92.2201C278.939 92.2201 278.779 91.8401 278.779 91.0801C278.779 89.7801 279.999 90.2401 281.569 89.4001C282.709 88.8001 282.869 87.3701 283.709 87.3701C284.169 87.3701 284.359 87.6401 284.359 88.8101C284.359 89.8901 284.409 89.6201 286.559 89.6201C288.709 89.6201 289.349 89.5701 289.349 90.3801C289.349 90.7301 289.299 90.9501 289.269 91.4601C289.239 92.4101 288.429 92.2501 285.419 92.2501C283.819 92.2501 284.169 92.5001 284.149 95.1801C284.149 96.4301 284.119 97.6801 284.119 98.4601C284.119 100.11 284.719 101.23 286.559 101.23C287.809 101.23 288.589 100.5 289.109 100.5C289.379 100.5 289.599 100.66 289.569 101.2C289.569 102.61 287.889 103.97 285.799 103.97C282.679 103.97 281.129 102.02 281.129 99.1401Z" fill="#231F20"/><path d="M291.68 102.53C291.68 101.85 292.17 101.69 293.04 101.42C293.83 101.2 293.96 100.99 294.02 98.9498C294.05 97.6798 294.1 94.4698 294.1 92.7898C294.1 92.1698 293.96 91.9798 293.53 91.9798C292.72 91.9798 291.6 92.5798 291.6 91.7398C291.6 91.1398 292.28 90.5998 293.15 90.0598C293.91 89.5498 294.56 89.2498 295.4 89.2498C296.73 89.2498 297.19 89.7898 297.19 90.8198C297.19 91.7998 296.84 92.6598 296.81 93.9698C296.78 95.3798 296.78 97.0598 296.81 99.2298C296.84 100.91 296.84 101.1 297.68 101.37C298.28 101.64 298.85 101.69 298.85 102.48C298.85 103.51 298.06 103.62 295.49 103.62C292.64 103.65 291.69 103.84 291.69 102.54L291.68 102.53ZM293.17 85.3898C293.14 84.3898 293.9 83.5698 295.37 83.5698C296.84 83.5698 297.54 84.2998 297.57 85.3098C297.57 86.2898 296.89 86.9598 295.43 86.9598C294.07 86.9898 293.18 86.3898 293.18 85.3898H293.17Z" fill="#231F20"/><path d="M300.489 96.5102C300.489 92.3102 303.009 88.9702 307.649 89.0002C312.229 89.0302 314.619 92.2502 314.619 96.5102C314.619 100.77 312.179 103.97 307.569 103.97C302.959 103.97 300.489 100.77 300.489 96.5102ZM311.689 96.2902C311.339 93.1402 309.929 91.2702 307.209 91.4602C304.579 91.5902 303.169 93.7902 303.489 96.8302C303.789 99.6502 305.389 101.63 308.049 101.44C310.759 101.28 311.959 99.0802 311.679 96.2902H311.689Z" fill="#231F20"/><path d="M316.949 102.56C316.949 101.83 317.409 101.64 318.279 101.34C319.169 100.99 319.259 100.77 319.259 98.93C319.259 96.76 319.289 94.83 319.289 92.94C319.289 92.26 319.149 92.13 318.669 92.13C317.719 92.13 316.529 92.73 316.529 91.69C316.529 91.04 317.239 90.55 318.159 89.98C318.839 89.55 319.519 89.19 320.189 89.19C321.139 89.19 321.599 89.65 321.599 90.44C321.599 91.14 321.409 92.04 321.789 92.04C322.119 92.04 322.089 91.5 323.009 90.47C323.739 89.66 324.849 88.98 326.559 88.98C329.409 88.98 331.089 90.63 331.089 93.32C331.089 95.11 330.979 96.9 330.979 98.91C330.979 100.92 330.979 101.19 331.899 101.43C332.659 101.7 333.169 101.92 333.169 102.54C333.169 103.87 332.189 103.62 329.529 103.62C326.869 103.65 326.139 103.51 326.139 102.48C326.139 101.72 326.629 101.64 327.359 101.4C328.149 101.08 328.149 100.83 328.149 98.99V94.57C328.149 92.78 327.389 91.67 325.629 91.67C322.939 91.67 322.019 94.16 322.019 96.53L321.989 99.11C321.989 100.93 321.939 101.09 322.779 101.39C323.379 101.66 323.969 101.74 323.969 102.47C323.969 103.53 323.209 103.64 320.689 103.64C317.869 103.67 316.949 103.88 316.949 102.58V102.56Z" fill="#231F20"/><path d="M346.32 102.56C345.48 99.7902 344.34 96.5102 343.39 92.9602C343.2 92.2302 342.87 91.9602 342.55 91.7102C341.6 91.5502 341.46 91.5202 341.46 90.7902C341.46 89.6202 342.33 89.4602 344.96 89.4602C347.27 89.4602 348.21 89.5902 348.21 90.6502C348.21 91.2702 348.07 91.3302 347.1 91.5402C346.8 91.6502 346.53 91.8602 346.64 92.4902C347.21 94.5502 348.27 98.0502 348.76 99.6202C348.92 100.27 348.95 100.92 349.36 100.92C349.71 100.89 349.77 100.35 350.07 99.3202C350.78 97.1502 351.56 94.6302 352.05 93.0002C352.29 92.0202 352.27 91.7502 351.72 91.5102C350.91 91.3502 350.5 91.2702 350.5 90.6202C350.5 89.6202 351.07 89.4502 353.81 89.4502C356.55 89.4502 357.09 89.5602 357.09 90.5902C357.09 91.2202 356.79 91.3202 356.03 91.5402C355.6 91.6502 355.35 91.8902 355.49 92.5202C356.01 94.5302 357.12 97.8902 357.61 99.6002C357.85 100.58 357.83 100.96 358.18 100.93C358.56 100.9 358.53 100.52 358.91 99.2802C359.72 96.8102 360.4 94.5102 360.89 93.0702C361.19 92.1202 361.11 91.8002 360.56 91.5202C359.72 91.3302 359.29 91.2802 359.29 90.6302C359.29 89.6302 359.86 89.4602 362.63 89.4602C364.8 89.4602 365.26 89.6202 365.26 90.6802C365.26 91.2502 364.83 91.4402 364.12 91.6002C363.44 91.7902 363.28 92.1202 363.03 93.0102C362.35 95.3402 361.05 99.1102 359.99 102.45C359.64 103.67 359.42 103.83 358.55 103.83H357.55C356.47 103.83 356.09 103.72 355.79 102.56C355.22 100.66 353.95 96.7302 353.73 95.8302C353.51 94.9902 353.51 94.5802 353.27 94.5802C352.97 94.5802 353.03 94.9302 352.75 95.8302C352.02 98.0802 351.5 99.8702 350.69 102.34C350.42 103.32 350.31 103.83 349.28 103.83H348.22C346.97 103.83 346.65 103.7 346.32 102.56Z" fill="#231F20"/><path d="M366.359 96.5102C366.359 92.3102 368.879 88.9702 373.519 89.0002C378.099 89.0302 380.489 92.2502 380.489 96.5102C380.489 100.77 378.049 103.97 373.439 103.97C368.829 103.97 366.359 100.77 366.359 96.5102ZM377.569 96.2902C377.219 93.1402 375.809 91.2702 373.089 91.4602C370.459 91.5902 369.049 93.7902 369.369 96.8302C369.669 99.6502 371.269 101.63 373.929 101.44C376.639 101.28 377.839 99.0802 377.559 96.2902H377.569Z" fill="#231F20"/><path d="M382.939 102.58C382.939 101.9 383.399 101.69 384.269 101.44C385.079 101.25 385.189 101.03 385.249 99.3002C385.299 98.4602 385.299 94.0102 385.299 92.9002C385.299 92.2202 385.079 92.0602 384.539 92.0602C383.649 92.0602 382.399 92.7702 382.399 91.8202C382.399 91.1202 383.109 90.5702 383.999 90.0002C384.709 89.5402 385.409 89.1902 386.059 89.1902C386.929 89.1902 387.389 89.6502 387.389 90.4102C387.389 91.3302 387.199 92.2002 387.579 92.2002C387.909 92.2002 387.879 91.6002 388.639 90.5202C389.289 89.5702 390.099 88.9702 391.429 88.9702C393.409 88.9702 394.359 90.1902 394.329 92.2302C394.329 93.5002 393.809 94.3202 392.589 94.3202C391.719 94.3202 391.559 93.9902 391.529 93.3202C391.579 92.4802 391.449 91.8802 390.309 91.8802C388.679 91.8802 387.979 94.0002 387.949 95.6502C387.919 96.7902 387.949 98.0602 387.979 99.1802C388.009 100.78 387.979 101 389.249 101.27C390.549 101.57 391.179 101.54 391.179 102.49C391.179 103.57 390.369 103.63 387.059 103.63C383.889 103.66 382.939 103.85 382.939 102.6V102.58Z" fill="#231F20"/><path d="M396.06 102.42C396.06 101.66 396.52 101.58 397.47 101.23C398.26 100.96 398.45 100.77 398.47 98.76V93.66C398.47 91.19 398.61 89.02 398.58 87.34C398.55 86.64 398.44 86.55 397.88 86.55C397.01 86.55 395.71 87.28 395.71 86.11C395.71 85.32 396.55 84.7 397.47 84.08C398.2 83.64 398.93 83.29 399.61 83.29C400.91 83.29 401.62 84.05 401.62 85.3C401.62 87.42 401.21 89.21 401.21 93.95C401.21 95.52 401.13 96.23 401.56 96.23C401.89 96.23 402.05 95.9 405.36 92.89C406.55 91.83 406.63 91.43 405.98 91.34C405.09 91.29 404.49 91.21 404.49 90.47C404.49 89.52 405.14 89.47 408.18 89.47C410.84 89.47 411.27 89.6 411.27 90.58C411.27 91.34 410.84 91.45 409.91 91.66C409.1 91.8 408.83 91.96 407.41 93.26C406.46 94.15 406.14 94.4 406.14 94.94C406.14 95.48 407.09 96.73 407.82 97.81C409.64 100.44 409.58 100.85 410.51 101.04C411.16 101.36 411.62 101.61 411.62 102.23C411.62 103.56 410.86 103.53 408.36 103.53C405.86 103.53 404.89 103.56 404.89 102.34C404.89 101.63 405.51 101.58 406.16 101.39C406.68 101.2 406.87 100.9 406.46 100.25C406.11 99.68 405.59 98.87 405.08 98.22C404.1 96.84 403.97 96.43 403.43 96.51C402.94 96.57 401.12 98.06 401.12 99.33C401.12 100.96 401.17 101.04 401.91 101.23C402.51 101.45 403.08 101.39 403.08 102.26C403.08 103.56 402.35 103.56 400.04 103.56C396.78 103.59 396.05 103.56 396.05 102.39L396.06 102.42Z" fill="#231F20"/><path d="M414.069 102.64C413.309 100.66 413.389 100.01 414.229 99.6799C415.099 99.3299 415.499 99.5399 416.449 100.28C417.699 101.61 418.919 102.18 420.459 102.18C422.089 102.18 423.089 101.39 423.089 100.17C423.089 98.7299 421.899 98.1899 419.449 97.6999C417.879 97.3699 415.759 97.0199 414.759 95.9099C414.159 95.2899 413.809 94.4699 413.809 93.3599C413.809 90.6999 416.029 88.9699 419.019 88.9899C420.859 88.9899 421.709 89.4799 422.379 89.9899C422.679 90.2599 422.899 90.3999 423.189 90.3999C423.789 90.3999 423.079 89.0399 424.059 89.0399C424.769 89.0399 424.849 89.4999 425.169 90.3699C425.929 92.2099 425.739 93.0499 425.059 93.2199C424.269 93.4899 423.789 93.2499 422.969 92.6199C421.969 91.5599 420.579 90.8599 419.039 90.8599C417.389 90.8599 416.409 91.7299 416.409 92.7899C416.409 93.9799 417.359 94.3099 419.309 94.6899C422.049 95.1999 423.649 95.6099 424.709 96.7499C425.359 97.4299 425.769 98.2699 425.769 99.5999C425.769 102.39 423.549 103.99 420.619 103.99C418.939 103.99 417.879 103.61 417.069 103.01C416.529 102.66 416.309 102.41 416.009 102.41C415.359 102.41 416.439 104.04 415.139 104.04C414.569 104.04 414.409 103.55 414.059 102.63L414.069 102.64Z" fill="#231F20"/><path d="M427.98 102.39C427.98 101.71 428.41 101.52 429.28 101.22C430.07 101 430.18 100.76 430.23 98.6998C430.23 97.9898 430.26 93.5498 430.26 91.1298C430.26 89.9598 430.37 88.4198 430.37 87.1198C430.37 86.3598 430.21 86.2298 429.58 86.2298C428.69 86.2298 427.46 86.9298 427.46 85.9298C427.46 85.1698 428.22 84.5998 429.2 84.0598C429.93 83.6298 430.64 83.2998 431.34 83.2998C432.61 83.2998 433.35 84.0598 433.35 85.2298C433.35 86.3998 433.19 87.6198 433.05 88.8398C432.78 91.1998 432.62 92.0098 433 92.0098C433.38 92.0098 433.38 91.4098 434.3 90.4598C435.17 89.5398 436.25 88.9398 437.85 88.9398C440.56 88.9398 442.11 90.4898 442.11 93.1398C442.11 94.8998 442 96.9698 442 98.8598C442 100.65 441.97 101 442.95 101.22C443.82 101.49 444.31 101.71 444.31 102.36C444.31 103.69 443.22 103.61 440.59 103.61C437.85 103.64 437.14 103.34 437.14 102.28C437.14 101.33 437.76 101.3 438.39 101.17C439.18 100.98 439.2 100.68 439.23 98.9498C439.26 97.5098 439.26 95.8798 439.26 94.6898C439.26 92.8698 438.45 91.7898 436.66 91.7898C433.95 91.7898 433 94.2598 433 96.6498C433 97.2698 433 98.4898 432.97 99.0598C432.97 100.74 433 100.93 433.86 101.2C434.54 101.45 435.08 101.53 435.08 102.26C435.08 103.34 434.29 103.62 431.72 103.62C428.95 103.65 427.98 103.7 427.98 102.4V102.39Z" fill="#231F20"/><path d="M445.58 96.5102C445.58 92.3102 448.1 88.9702 452.74 89.0002C457.32 89.0302 459.71 92.2502 459.71 96.5102C459.71 100.77 457.27 103.97 452.66 103.97C448.05 103.97 445.58 100.77 445.58 96.5102ZM456.79 96.2902C456.44 93.1402 455.03 91.2702 452.31 91.4602C449.68 91.5902 448.27 93.7902 448.59 96.8302C448.89 99.6502 450.49 101.63 453.15 101.44C455.86 101.28 457.06 99.0802 456.78 96.2902H456.79Z" fill="#231F20"/><path d="M462.34 107.76C462.34 106.68 462.86 106.68 463.75 106.35C464.56 106.08 464.59 105.75 464.59 103.39L464.62 93.3502C464.62 92.3702 464.54 92.0502 463.92 92.0502C463 92.0502 461.75 92.7602 461.72 91.7302C461.72 90.9702 462.48 90.4602 463.43 89.8302C464.08 89.4202 464.73 89.0402 465.36 89.0402C466.23 89.0402 466.69 89.5302 466.69 90.2902C466.69 91.2702 466.55 91.9702 466.88 91.9702C467.29 91.9702 467.37 91.3502 468.15 90.4802C468.96 89.4502 470.29 88.6602 472.08 88.6602C475.8 88.6602 478.1 91.6402 478.1 95.8702C478.1 100.1 475.96 103.49 471.86 103.49C468.77 103.49 468.01 101.4 467.55 101.43C467.03 101.46 467.14 102.38 467.17 104.17C467.2 106.18 467.17 106.34 468.09 106.56C468.98 106.86 469.61 106.94 469.61 107.86C469.61 108.78 468.88 108.94 466.9 108.94C464.32 108.97 462.34 108.94 462.34 107.75V107.76ZM475.15 96.0502C475.01 93.2002 473.6 91.2202 471.05 91.3002C468.31 91.4302 467.12 93.9802 467.25 96.2902C467.41 99.6302 468.99 101.23 471.51 101.15C473.98 101.07 475.28 98.9502 475.15 96.0502Z" fill="#231F20"/></g><defs><clipPath id="clip0_2032_420"><rect width="478.46" height="108.96" fill="white"/></clipPath></defs></svg>