<svg xmlns="http://www.w3.org/2000/svg" width="471" height="102" viewBox="0 0 471 102" fill="none"><g clip-path="url(#clip0_43_384)"><path d="M51.8052 70.3563L46.5922 55.8689H25.8511L21.0342 70.3563H0L17.1997 16.8464C20.345 7.09282 28.5051 0.881638 38.3369 0.881638C48.1687 0.881638 56.2259 6.98956 59.4741 16.5526L77.6563 70.3563H51.8052ZM45.8078 31.4372C45.8078 26.4094 41.6802 22.2713 36.6653 22.2713C31.6504 22.2713 27.4277 26.4094 27.4277 31.4372C27.4277 36.4649 31.6583 40.6983 36.6653 40.6983C41.6723 40.6983 45.8078 36.5602 45.8078 31.4372Z" fill="#323E81"/><path d="M77.8939 63.3509C77.8939 49.888 78.9238 19.3246 85.8164 8.38748C87.7733 5.39308 90.5699 2.96262 94.3014 2.96262C103.903 2.96262 107.54 16.9815 109.402 24.3682C111.636 33.2481 114.805 51.9452 119.004 58.9506C119.281 59.3239 120.311 61.0078 120.778 61.0078C121.056 61.0078 121.99 59.1413 122.181 58.7679C124.605 52.9698 124.882 41.9453 124.882 35.4959C124.882 24.5588 124.042 13.6217 122.83 2.68463L132.155 1.37408C133.462 12.9625 134.207 24.5508 134.207 36.2425C134.207 45.4004 134.112 70.3643 120.778 70.3643C111.081 70.3643 107.445 56.4328 105.583 48.9587C104.466 44.6617 103.531 40.4521 102.596 36.1551C101.194 29.801 99.9897 23.1609 97.3753 17.0847C96.7257 15.5915 95.7908 13.439 94.4836 12.4144C88.1456 19.2372 87.2108 53.359 87.2108 63.3588C87.2108 64.7647 87.2108 66.1626 87.3058 67.5684L77.9811 67.9417C77.886 66.4485 77.886 64.852 77.886 63.3588L77.8939 63.3509Z" fill="#323E81"/><path d="M148.563 3.93958V70.3643H140.014V3.93958H148.563Z" fill="#323E81"/><path d="M179.357 62.2548C177.282 65.1618 173.463 69.5938 169.24 69.9036C167.196 70.0783 165.232 69.157 163.441 67.2428C158.474 61.9291 158.228 50.2137 162.736 33.3752C167.537 15.4088 177.63 1.80299 184.792 3.78072C191.407 5.55988 195.147 21.1434 189.934 40.6507C189.823 41.0796 190.077 41.5403 190.512 41.6514C190.584 41.6753 190.655 41.6832 190.726 41.6832C191.083 41.6832 191.415 41.4449 191.51 41.0796C192.572 37.1003 193.261 33.1845 193.642 29.4356C198.87 13.2007 208.053 1.8983 214.565 3.78866C224.999 6.76717 224.112 25.1068 220.19 39.9041C216.934 52.1676 207.427 69.6574 199.322 70.3087C196.232 70.539 193.578 68.2515 191.344 63.5018C197.437 59.173 203.513 48.7999 207.046 35.5832C207.157 35.1543 206.904 34.6937 206.468 34.5825C206.04 34.4554 205.589 34.7254 205.47 35.1623C200.811 52.5885 191.011 65.7575 184.079 63.883C177.139 62.0165 175.214 45.7181 179.88 28.2839C179.991 27.855 179.738 27.3943 179.302 27.2831C178.874 27.156 178.423 27.4261 178.304 27.8629C174.303 42.8111 174.952 56.2183 179.365 62.2707L179.357 62.2548Z" fill="#F57F20"/><path d="M224.183 36.0677C224.183 12.7162 236.272 0 258.487 0C280.702 0 292.102 12.5177 292.102 36.0677C292.102 59.6178 280.504 71.7384 258.487 71.7384C236.47 71.7384 224.183 59.3239 224.183 36.0677ZM268.018 36.0677C268.018 29.5627 264.088 25.226 258.186 25.226C252.284 25.226 248.259 29.3641 248.259 35.9645C248.259 42.5649 251.896 46.5124 258.186 46.5124C264.476 46.5124 268.018 42.5728 268.018 36.0677Z" fill="#F5E554"/><path d="M350.214 35.3767C350.214 37.4101 349.738 39.3322 348.788 41.1431C347.837 42.9541 346.546 44.4473 344.906 45.6307C346.546 46.8142 347.837 48.3074 348.788 50.1184C349.738 51.9293 350.214 53.8514 350.214 55.8848C350.214 59.5622 348.835 62.6519 346.086 65.1459L349.334 68.0053C349.73 68.4024 349.857 68.8949 349.73 69.4826C349.596 70.0704 349.271 70.3722 348.748 70.3722H324.371C323.848 70.3722 323.499 70.0783 323.341 69.4826C323.174 68.8949 323.325 68.3945 323.784 68.0053L327.817 64.5582C325.456 62.1277 324.276 59.2366 324.276 55.8848C324.276 53.8514 324.751 51.9293 325.702 50.1184C326.652 48.3154 327.975 46.8142 329.687 45.6307C327.983 44.4473 326.652 42.9541 325.702 41.1431C324.751 39.3401 324.276 37.418 324.276 35.3767C324.276 33.3355 324.783 31.2862 325.797 29.4118C326.811 27.5373 328.173 26.0441 329.877 24.9242C329.877 24.8606 329.861 24.813 329.829 24.7732C329.798 24.7415 329.75 24.7256 329.679 24.7256C327.452 26.3062 324.925 27.0925 322.113 27.0925C319.3 27.0925 316.607 26.2426 314.246 24.527C314.048 24.7256 313.881 24.8606 313.754 24.9242C315.521 26.0441 316.916 27.5373 317.93 29.4118C318.944 31.2862 319.451 33.2719 319.451 35.3767C319.451 36.6952 319.237 37.9899 318.809 39.2687C318.381 40.5474 317.763 41.7309 316.939 42.819C316.115 43.8992 315.157 44.8365 314.04 45.6307C315.743 46.8142 317.066 48.3074 318.017 50.1184C318.967 51.9293 319.443 53.8514 319.443 55.8848C319.443 59.4351 318.167 62.4216 315.608 64.8521L319.245 68.0053C319.641 68.4024 319.752 68.8949 319.585 69.4826C319.419 70.0704 319.11 70.3722 318.651 70.3722H294.178C293.718 70.3722 293.41 70.0783 293.243 69.4826C293.077 68.8949 293.227 68.3945 293.687 68.0053L297.323 64.8521C294.701 62.4216 293.394 59.4351 293.394 55.8848C293.457 53.8514 293.948 51.9293 294.867 50.1184C295.786 48.3154 297.093 46.8142 298.797 45.6307C297.093 44.4473 295.778 42.9541 294.867 41.1431C293.948 39.3401 293.457 37.418 293.394 35.3767C293.457 33.2719 293.98 31.2862 294.962 29.4118C295.945 27.5373 297.323 26.0441 299.09 24.9242C297.323 23.7407 295.945 22.2157 294.962 20.3412C293.98 18.4667 293.457 16.4811 293.394 14.3763C293.457 10.8259 294.756 7.82355 297.276 5.36132C299.795 2.89908 302.861 1.69974 306.466 1.76328C309.35 1.76328 311.94 2.62109 314.23 4.32877C316.591 2.62109 319.205 1.76328 322.097 1.76328C324.989 1.76328 327.437 2.5496 329.663 4.1302C331.952 2.5496 334.48 1.76328 337.229 1.76328C340.77 1.69974 343.812 2.89908 346.371 5.36132C348.93 7.82355 350.206 10.8338 350.206 14.3763C350.206 16.4811 349.715 18.4667 348.732 20.3412C347.75 22.2157 346.371 23.7407 344.605 24.9242C346.371 26.0441 347.75 27.5373 348.732 29.4118C349.715 31.2862 350.206 33.2719 350.206 35.3767H350.214Z" fill="#0A6DB4"/><path d="M432.647 1.37408C455.012 2.72434 471 16.3222 471 39.6499C471 57.8386 459.504 70.3643 441.085 70.3643C424.463 70.3643 413.15 61.8974 413.15 44.4235C413.15 34.0662 416.382 22.9861 426.357 18.1252C429.407 16.6876 432.734 15.8774 436.062 15.8774C448.999 15.8774 452.683 27.3149 453.396 38.2123L444.412 38.9351C444.056 33.534 443.247 24.8844 436.062 24.8844C425.374 24.8844 422.142 35.5118 422.142 44.4235C422.142 56.8538 429.502 61.3573 441.093 61.3573C454.569 61.3573 462.024 52.8904 462.024 39.6499C462.024 21.2785 449.807 11.3739 432.291 10.3811L432.647 1.37408Z" fill="#F289B8"/><path d="M356.924 4.82121C362.137 4.03489 368.325 3.43919 375.106 3.43919C387.394 3.43919 396.14 6.29855 401.94 11.7155C407.834 17.1324 411.28 24.8209 411.28 35.5674C411.28 46.3138 407.937 55.2732 401.75 61.389C395.554 67.6002 385.334 70.952 372.452 70.952C366.36 70.952 361.25 70.6582 356.924 70.1657V4.82121ZM365.48 63.5574C367.643 63.9545 370.788 64.0498 374.132 64.0498C392.417 64.0498 402.344 53.8038 402.344 35.8612C402.439 20.1903 393.597 10.2381 375.51 10.2381C371.09 10.2381 367.746 10.6353 365.48 11.1277V63.5574Z" fill="#36BA9B"/><path d="M173.035 95.1137C172.528 93.0883 172.576 92.4767 173.74 92.3099C174.762 92.1431 174.96 92.6038 175.539 93.1916C177.02 94.8278 178.85 95.757 180.894 95.757C182.74 95.757 184.277 94.8754 184.277 93.0486C184.277 90.9279 182.986 90.2687 179.31 89.5379C175.562 88.831 173.13 87.7111 173.13 84.4864C173.13 81.4364 175.444 79.6334 178.827 79.6334C180.53 79.6334 181.845 80.0226 182.915 80.9995C183.35 81.3411 183.453 81.4602 183.667 81.4602C184.127 81.4602 183.398 79.8478 184.325 79.7764C185.101 79.7287 185.228 80.1894 185.782 81.484C186.393 82.9931 186.606 84.0734 185.735 84.3593C184.935 84.6293 184.467 84.5579 183.834 83.8986C182.352 82.1909 180.863 81.484 178.842 81.484C176.822 81.484 175.578 82.3895 175.578 83.9701C175.578 85.5507 176.989 86.1385 180.007 86.7024C184.555 87.5523 186.599 88.7993 186.599 92.3893C186.599 95.6617 184.166 97.5124 180.855 97.5124C178.977 97.5124 177.67 96.9484 176.45 96.1224C175.745 95.6617 175.547 95.3917 175.206 95.4632C174.62 95.5823 175.745 97.3694 174.572 97.4171C173.621 97.4647 173.503 96.8531 173.011 95.1216L173.035 95.1137Z" fill="#323E81"/><path d="M190.702 93.1598C190.702 91.9922 190.821 90.5228 190.821 88.9899C190.845 86.7977 190.916 86.9407 189.918 86.9407C188.73 86.9407 188.579 86.5991 188.579 85.9161C188.579 84.7485 189.672 85.1615 191.083 84.4069C192.105 83.8668 192.247 82.5801 193.008 82.5801C193.42 82.5801 193.594 82.8263 193.594 83.8748C193.594 84.8517 193.642 84.6055 195.567 84.6055C197.492 84.6055 198.07 84.5579 198.07 85.2886C198.07 85.6063 198.023 85.8049 197.999 86.2655C197.975 87.1233 197.246 86.9724 194.545 86.9724C193.111 86.9724 193.428 87.1948 193.404 89.6094C193.404 90.7293 193.38 91.8572 193.38 92.5641C193.38 94.0494 193.919 95.0501 195.567 95.0501C196.684 95.0501 197.389 94.3909 197.856 94.3909C198.102 94.3909 198.292 94.5339 198.268 95.0263C198.268 96.2971 196.763 97.5124 194.885 97.5124C192.089 97.5124 190.702 95.757 190.702 93.1677V93.1598Z" fill="#323E81"/><path d="M200.217 90.7929C200.217 87.0122 202.483 84.0098 206.642 84.0336C210.754 84.0575 212.893 86.9645 212.893 90.7929C212.893 94.6212 210.707 97.5044 206.563 97.5044C202.42 97.5044 200.209 94.6292 200.209 90.7929H200.217ZM210.271 90.6022C209.954 87.7747 208.686 86.0908 206.254 86.2576C203.893 86.3767 202.626 88.3545 202.919 91.0868C203.188 93.6205 204.622 95.4076 207.007 95.2328C209.439 95.0899 210.508 93.1121 210.271 90.5943V90.6022Z" fill="#323E81"/><path d="M215.254 100.92C215.254 99.9428 215.714 99.9428 216.522 99.649C217.251 99.4027 217.274 99.1089 217.274 96.9882L217.298 87.9573C217.298 87.0757 217.227 86.7897 216.664 86.7897C215.84 86.7897 214.715 87.4252 214.692 86.4959C214.692 85.8128 215.373 85.3521 216.229 84.7882C216.815 84.4228 217.393 84.0813 217.956 84.0813C218.732 84.0813 219.144 84.5181 219.144 85.2012C219.144 86.0828 219.025 86.7103 219.31 86.7103C219.675 86.7103 219.746 86.1464 220.451 85.368C221.18 84.4387 222.376 83.7318 223.977 83.7318C227.312 83.7318 229.38 86.4164 229.38 90.221C229.38 94.0255 227.455 97.0755 223.787 97.0755C221.014 97.0755 220.332 95.1931 219.92 95.2249C219.461 95.2487 219.556 96.0827 219.58 97.6871C219.604 99.4901 219.58 99.641 220.404 99.8316C221.204 100.102 221.766 100.173 221.766 100.999C221.766 101.825 221.109 101.976 219.334 101.976C217.021 102 215.246 101.976 215.246 100.904L215.254 100.92ZM226.742 90.3798C226.623 87.8144 225.355 86.0352 223.066 86.1067C220.61 86.2258 219.54 88.5213 219.659 90.5943C219.802 93.5966 221.22 95.0343 223.478 94.9628C225.688 94.8913 226.861 92.985 226.742 90.3798Z" fill="#323E81"/><path d="M238.229 96.1383C238.229 95.4791 238.792 95.2805 239.759 95.0422C240.464 94.8754 240.487 94.6768 240.511 92.9692C240.535 90.3798 240.535 86.1623 240.559 83.7477C240.582 82.8184 240.44 82.5007 239.608 82.2862C238.832 82.0639 238.293 81.9924 238.293 81.1187C238.293 80.1417 238.705 80.0226 240.02 80.0226H243.648C244.742 80.0226 245.106 80.3403 245.471 81.2934C246.295 83.3903 247.927 87.584 248.877 90.9517C249.099 91.9525 249.123 92.6594 249.535 92.6594C249.971 92.6594 249.899 91.9525 250.359 90.5387C252.015 86.3688 250.818 89.0534 253.884 81.4364C254.32 80.1179 254.566 80.0226 255.683 80.0226H259.042C260.23 79.9988 260.65 80.2688 260.65 81.3172C260.65 82.0241 259.945 82.0718 259.042 82.2704C258.479 82.5166 258.337 82.9296 258.361 83.708C258.408 87.1948 258.408 90.7611 258.408 93.2948C258.408 94.7563 258.677 94.8833 259.359 95.0501C260.135 95.2725 260.626 95.3679 260.626 96.2733C260.626 97.3456 259.486 97.2026 257.125 97.2026C254.764 97.2026 253.987 97.2741 253.987 96.0589C253.987 95.5744 254.423 95.3996 255.081 95.2011C255.54 95.0025 255.786 94.8119 255.81 93.7396C255.833 91.5712 255.857 87.449 255.786 84.1051C255.762 83.1997 255.691 82.8581 255.279 82.8581C254.867 82.8581 254.867 83.3426 254.669 84.129C253.425 87.9573 251.555 92.3258 250.438 95.5982C250.121 97.1391 250.145 97.3059 248.909 97.3059C248.006 97.3059 247.721 96.9643 247.499 96.186C246.643 93.7714 244.385 86.6468 243.411 83.8907C243.244 83.2314 243.141 82.8899 242.801 82.8899C242.484 82.8899 242.341 83.2791 242.341 84.1369C242.341 85.7254 242.222 91.1185 242.317 93.4775C242.341 94.5498 242.175 95.0899 243.094 95.3043C244.068 95.6458 244.338 95.765 244.338 96.4004C244.338 97.3297 243.173 97.2582 241.002 97.2582C239.204 97.2582 238.229 97.282 238.229 96.1621V96.1383Z" fill="#323E81"/><path d="M262.757 90.7929C262.757 87.0122 265.023 84.0098 269.183 84.0336C273.294 84.0575 275.433 86.9645 275.433 90.7929C275.433 94.6212 273.247 97.5044 269.103 97.5044C264.96 97.5044 262.75 94.6292 262.75 90.7929H262.757ZM272.811 90.6022C272.494 87.7747 271.227 86.0908 268.794 86.2576C266.433 86.3767 265.166 88.3545 265.459 91.0868C265.728 93.6205 267.162 95.4076 269.547 95.2328C271.979 95.0899 273.049 93.1121 272.811 90.5943V90.6022Z" fill="#323E81"/><path d="M279.109 93.1598C279.109 91.9922 279.228 90.5228 279.228 88.9899C279.252 86.7977 279.323 86.9407 278.325 86.9407C277.137 86.9407 276.986 86.5991 276.986 85.9161C276.986 84.7485 278.079 85.1615 279.49 84.4069C280.512 83.8668 280.654 82.5801 281.415 82.5801C281.827 82.5801 282.001 82.8263 282.001 83.8748C282.001 84.8517 282.049 84.6055 283.974 84.6055C285.899 84.6055 286.477 84.5579 286.477 85.2886C286.477 85.6063 286.43 85.8049 286.406 86.2655C286.382 87.1233 285.653 86.9724 282.952 86.9724C281.518 86.9724 281.835 87.1948 281.811 89.6094C281.811 90.7293 281.787 91.8572 281.787 92.5641C281.787 94.0494 282.326 95.0501 283.974 95.0501C285.091 95.0501 285.796 94.3909 286.263 94.3909C286.509 94.3909 286.699 94.5339 286.675 95.0263C286.675 96.2971 285.17 97.5124 283.292 97.5124C280.496 97.5124 279.109 95.757 279.109 93.1677V93.1598Z" fill="#323E81"/><path d="M288.577 96.2098C288.577 95.5982 289.012 95.4552 289.797 95.209C290.502 95.0104 290.621 94.8198 290.676 92.985C290.7 91.8413 290.747 88.9581 290.747 87.449C290.747 86.8851 290.629 86.7183 290.232 86.7183C289.504 86.7183 288.505 87.2584 288.505 86.4959C288.505 85.9558 289.115 85.4713 289.892 84.9868C290.573 84.5261 291.159 84.256 291.912 84.256C293.1 84.256 293.52 84.7405 293.52 85.6698C293.52 86.5515 293.203 87.3299 293.18 88.4974C293.156 89.7683 293.156 91.2774 293.18 93.2313C293.203 94.7404 293.203 94.9151 293.956 95.1613C294.495 95.4076 295.002 95.4552 295.002 96.1621C295.002 97.0914 294.297 97.1867 291.983 97.1867C289.424 97.2106 288.577 97.3853 288.577 96.2098ZM289.916 80.793C289.892 79.8876 290.573 79.1568 291.888 79.1568C293.203 79.1568 293.837 79.8161 293.861 80.7215C293.861 81.6032 293.251 82.2068 291.936 82.2068C290.716 82.2306 289.916 81.6985 289.916 80.793Z" fill="#323E81"/><path d="M296.484 90.7929C296.484 87.0122 298.749 84.0098 302.909 84.0336C307.02 84.0575 309.16 86.9645 309.16 90.7929C309.16 94.6212 306.973 97.5044 302.829 97.5044C298.686 97.5044 296.476 94.6292 296.476 90.7929H296.484ZM306.537 90.6022C306.22 87.7747 304.953 86.0908 302.52 86.2576C300.16 86.3767 298.892 88.3545 299.185 91.0868C299.454 93.6205 300.888 95.4076 303.273 95.2328C305.705 95.0899 306.775 93.1121 306.537 90.5943V90.6022Z" fill="#323E81"/><path d="M311.259 96.2336C311.259 95.5744 311.671 95.4076 312.447 95.1375C313.247 94.8198 313.327 94.6292 313.327 92.9692C313.327 91.0153 313.35 89.2838 313.35 87.5761C313.35 86.9645 313.232 86.8454 312.788 86.8454C311.932 86.8454 310.863 87.3855 310.863 86.4562C310.863 85.8684 311.497 85.4316 312.321 84.9153C312.931 84.5261 313.541 84.2084 314.143 84.2084C314.998 84.2084 315.41 84.6214 315.41 85.3283C315.41 85.9637 315.236 86.7659 315.577 86.7659C315.87 86.7659 315.846 86.2814 316.67 85.3521C317.328 84.6214 318.326 84.0098 319.855 84.0098C322.406 84.0098 323.919 85.4951 323.919 87.9097C323.919 89.522 323.824 91.1265 323.824 92.9374C323.824 94.7483 323.824 94.9866 324.648 95.209C325.329 95.4552 325.789 95.6459 325.789 96.2098C325.789 97.4012 324.909 97.1867 322.525 97.1867C320.14 97.2106 319.482 97.0914 319.482 96.1621C319.482 95.4791 319.918 95.4076 320.576 95.1852C321.281 94.8913 321.281 94.6768 321.281 93.0168V89.0375C321.281 87.4252 320.6 86.4244 319.015 86.4244C316.607 86.4244 315.783 88.6722 315.783 90.7929L315.759 93.1121C315.759 94.7483 315.711 94.8913 316.464 95.1613C317.003 95.4076 317.534 95.4791 317.534 96.1383C317.534 97.0914 316.852 97.1867 314.586 97.1867C312.059 97.2106 311.227 97.4091 311.227 96.2336H311.259Z" fill="#323E81"/><path d="M337.609 96.2336C336.856 93.7475 335.834 90.7929 334.979 87.5999C334.812 86.9407 334.519 86.6944 334.226 86.48C333.371 86.337 333.252 86.3132 333.252 85.6539C333.252 84.6055 334.028 84.4625 336.389 84.4625C338.457 84.4625 339.312 84.5817 339.312 85.5348C339.312 86.0987 339.194 86.1464 338.314 86.337C338.045 86.4323 337.807 86.6309 337.902 87.1948C338.417 89.0455 339.36 92.1987 339.804 93.6125C339.946 94.2003 339.97 94.7801 340.342 94.7801C340.659 94.7563 340.707 94.2718 340.976 93.3425C341.61 91.3886 342.315 89.1249 342.751 87.6555C342.973 86.7739 342.949 86.5356 342.458 86.3132C341.729 86.1702 341.364 86.0908 341.364 85.511C341.364 84.6055 341.871 84.4625 344.335 84.4625C346.799 84.4625 347.282 84.5579 347.282 85.4871C347.282 86.0511 347.013 86.1464 346.332 86.345C345.944 86.4403 345.722 86.6627 345.848 87.2266C346.308 89.0296 347.306 92.0557 347.75 93.5966C347.972 94.4783 347.948 94.8198 348.257 94.788C348.598 94.7642 348.574 94.4227 348.914 93.3028C349.643 91.0867 350.253 89.0058 350.689 87.719C350.958 86.8612 350.887 86.5753 350.396 86.3291C349.643 86.1623 349.255 86.1067 349.255 85.5269C349.255 84.6214 349.762 84.4784 352.25 84.4784C354.199 84.4784 354.611 84.6214 354.611 85.5745C354.611 86.0908 354.223 86.2576 353.589 86.4006C352.979 86.5674 352.836 86.8612 352.614 87.6714C352.004 89.7683 350.84 93.1598 349.889 96.1621C349.572 97.2582 349.382 97.4091 348.598 97.4091H347.694C346.72 97.4091 346.379 97.3138 346.11 96.2654C345.603 94.5577 344.454 91.0232 344.264 90.2131C344.066 89.4585 344.066 89.0931 343.852 89.0931C343.583 89.0931 343.63 89.4108 343.392 90.2131C342.735 92.2384 342.275 93.8508 341.547 96.0668C341.301 96.9484 341.206 97.4091 340.279 97.4091H339.328C338.211 97.4091 337.918 97.29 337.625 96.2654L337.609 96.2336Z" fill="#323E81"/><path d="M355.593 90.7929C355.593 87.0122 357.859 84.0098 362.018 84.0336C366.13 84.0575 368.269 86.9645 368.269 90.7929C368.269 94.6212 366.083 97.5044 361.939 97.5044C357.796 97.5044 355.585 94.6292 355.585 90.7929H355.593ZM365.647 90.6022C365.33 87.7747 364.062 86.0908 361.63 86.2576C359.269 86.3767 358.002 88.3545 358.295 91.0868C358.564 93.6205 359.998 95.4076 362.383 95.2328C364.815 95.0899 365.884 93.1121 365.647 90.5943V90.6022Z" fill="#323E81"/><path d="M370.464 96.2574C370.464 95.6459 370.876 95.4552 371.652 95.2328C372.381 95.066 372.476 94.8675 372.531 93.3028C372.579 92.5482 372.579 88.5451 372.579 87.5443C372.579 86.9327 372.381 86.7898 371.898 86.7898C371.097 86.7898 369.972 87.4252 369.972 86.5674C369.972 85.9319 370.606 85.4474 371.406 84.9312C372.04 84.5182 372.674 84.2004 373.252 84.2004C374.029 84.2004 374.441 84.6135 374.441 85.2965C374.441 86.1226 374.274 86.9089 374.607 86.9089C374.9 86.9089 374.876 86.3688 375.558 85.3918C376.144 84.542 376.873 84.0019 378.061 84.0019C379.836 84.0019 380.692 85.098 380.668 86.9327C380.668 88.0765 380.208 88.8151 379.107 88.8151C378.331 88.8151 378.18 88.5213 378.156 87.9097C378.204 87.1551 378.085 86.615 377.063 86.615C375.605 86.615 374.972 88.5213 374.948 90.0065C374.924 91.0312 374.948 92.1749 374.972 93.1757C374.995 94.6133 374.972 94.8119 376.112 95.0581C377.277 95.3281 377.839 95.3043 377.839 96.1542C377.839 97.1311 377.111 97.1788 374.14 97.1788C371.295 97.2026 370.44 97.3774 370.44 96.2495L370.464 96.2574Z" fill="#323E81"/><path d="M382.244 96.1145C382.244 95.4314 382.656 95.3599 383.512 95.0422C384.217 94.796 384.391 94.6292 384.415 92.8262V88.2433C384.415 86.0273 384.534 84.0734 384.51 82.5563C384.486 81.9209 384.391 81.8494 383.876 81.8494C383.1 81.8494 381.927 82.5086 381.927 81.4602C381.927 80.7533 382.68 80.1894 383.512 79.6334C384.17 79.2442 384.827 78.9265 385.437 78.9265C386.602 78.9265 387.236 79.6096 387.236 80.7295C387.236 82.6357 386.871 84.2402 386.871 88.5133C386.871 89.9271 386.8 90.5625 387.188 90.5625C387.481 90.5625 387.624 90.2687 390.595 87.5602C391.664 86.6071 391.736 86.2417 391.157 86.1702C390.357 86.1226 389.818 86.0511 389.818 85.3918C389.818 84.534 390.405 84.4864 393.13 84.4864C395.515 84.4864 395.903 84.6055 395.903 85.4872C395.903 86.1702 395.515 86.2655 394.683 86.4641C393.954 86.5832 393.708 86.7342 392.441 87.9017C391.585 88.7039 391.3 88.9263 391.3 89.4108C391.3 89.9192 392.155 91.0232 392.805 92.0002C394.437 94.3671 394.39 94.7324 395.214 94.9072C395.8 95.2011 396.212 95.4155 396.212 95.9794C396.212 97.1708 395.53 97.147 393.288 97.147C391.046 97.147 390.175 97.1709 390.175 96.0748C390.175 95.4393 390.737 95.3917 391.316 95.2169C391.775 95.0422 391.949 94.7801 391.585 94.1923C391.268 93.6761 390.809 92.9453 390.341 92.3655C389.462 91.1185 389.343 90.7532 388.86 90.8246C388.424 90.8723 386.792 92.2146 386.792 93.3584C386.792 94.8198 386.839 94.8992 387.497 95.066C388.036 95.2646 388.543 95.209 388.543 95.9953C388.543 97.1629 387.885 97.1629 385.817 97.1629C382.894 97.1867 382.236 97.1629 382.236 96.1145H382.244Z" fill="#323E81"/><path d="M398.398 96.3051C397.717 94.5259 397.788 93.9382 398.541 93.6443C399.317 93.3266 399.682 93.5252 400.537 94.1844C401.655 95.3758 402.756 95.8921 404.142 95.8921C405.6 95.8921 406.503 95.1852 406.503 94.0891C406.503 92.7944 405.434 92.3099 403.239 91.8731C401.829 91.5792 399.927 91.2615 399.032 90.2607C398.493 89.6968 398.184 88.966 398.184 87.9653C398.184 85.5745 400.181 84.0098 402.859 84.0336C404.515 84.0336 405.267 84.4705 405.877 84.9391C406.147 85.1853 406.337 85.3045 406.606 85.3045C407.145 85.3045 406.511 84.0813 407.383 84.0813C408.016 84.0813 408.088 84.4943 408.381 85.2727C409.062 86.9327 408.896 87.6873 408.286 87.8382C407.581 88.0844 407.145 87.862 406.408 87.2981C405.505 86.345 404.269 85.7095 402.883 85.7095C401.401 85.7095 400.522 86.4879 400.522 87.441C400.522 88.5133 401.377 88.8072 403.128 89.1487C405.584 89.6094 407.018 89.9748 407.969 90.9994C408.555 91.611 408.919 92.3655 408.919 93.5569C408.919 96.0668 406.923 97.5124 404.293 97.5124C402.787 97.5124 401.837 97.1708 401.108 96.6307C400.625 96.313 400.427 96.0906 400.157 96.0906C399.571 96.0906 400.545 97.5521 399.381 97.5521C398.866 97.5521 398.723 97.1152 398.406 96.2813L398.398 96.3051Z" fill="#323E81"/><path d="M410.884 96.0906C410.884 95.479 411.272 95.3123 412.049 95.0422C412.754 94.8436 412.849 94.6292 412.904 92.7706C412.904 92.1352 412.928 88.1321 412.928 85.9637C412.928 84.9153 413.023 83.5253 413.023 82.3498C413.023 81.6667 412.881 81.5476 412.318 81.5476C411.518 81.5476 410.417 82.183 410.417 81.2775C410.417 80.5945 411.098 80.0861 411.978 79.5937C412.635 79.2045 413.269 78.9106 413.903 78.9106C415.044 78.9106 415.701 79.5937 415.701 80.6421C415.701 81.6905 415.558 82.7866 415.432 83.8827C415.186 86.0034 415.043 86.7341 415.384 86.7341C415.725 86.7341 415.725 86.194 416.549 85.3442C417.325 84.5181 418.3 83.978 419.734 83.978C422.166 83.978 423.552 85.368 423.552 87.7588C423.552 89.3473 423.457 91.1979 423.457 92.9056C423.457 94.518 423.433 94.8357 424.305 95.0263C425.081 95.2725 425.525 95.4632 425.525 96.0509C425.525 97.2423 424.551 97.1708 422.19 97.1708C419.734 97.1947 419.1 96.9246 419.1 95.9794C419.1 95.1216 419.662 95.0978 420.217 94.9787C420.922 94.8039 420.946 94.5418 420.97 92.9771C420.993 91.6824 420.993 90.221 420.993 89.1487C420.993 87.5125 420.264 86.5356 418.656 86.5356C416.224 86.5356 415.368 88.7516 415.368 90.9041C415.368 91.468 415.368 92.5641 415.345 93.0724C415.345 94.5815 415.368 94.7563 416.145 95.0025C416.755 95.2249 417.238 95.2964 417.238 95.9556C417.238 96.9326 416.533 97.1788 414.22 97.1788C411.74 97.2026 410.86 97.2503 410.86 96.0827L410.884 96.0906Z" fill="#323E81"/><path d="M426.674 90.7929C426.674 87.0122 428.94 84.0098 433.099 84.0336C437.211 84.0575 439.35 86.9645 439.35 90.7929C439.35 94.6212 437.163 97.5044 433.02 97.5044C428.876 97.5044 426.666 94.6292 426.666 90.7929H426.674ZM436.727 90.6022C436.41 87.7747 435.143 86.0908 432.711 86.2576C430.35 86.3767 429.082 88.3545 429.375 91.0868C429.645 93.6205 431.079 95.4076 433.463 95.2328C435.895 95.0899 436.965 93.1121 436.727 90.5943V90.6022Z" fill="#323E81"/><path d="M441.718 100.92C441.718 99.9428 442.178 99.9428 442.986 99.649C443.715 99.4027 443.739 99.1089 443.739 96.9882L443.762 87.9573C443.762 87.0757 443.691 86.7897 443.129 86.7897C442.305 86.7897 441.18 87.4252 441.156 86.4959C441.156 85.8128 441.837 85.3521 442.693 84.7882C443.279 84.4228 443.858 84.0813 444.42 84.0813C445.196 84.0813 445.608 84.5181 445.608 85.2012C445.608 86.0828 445.49 86.7103 445.775 86.7103C446.139 86.7103 446.211 86.1464 446.916 85.368C447.644 84.4387 448.841 83.7318 450.441 83.7318C453.777 83.7318 455.844 86.4164 455.844 90.221C455.844 94.0255 453.919 97.0755 450.251 97.0755C447.478 97.0755 446.797 95.1931 446.385 95.2249C445.925 95.2487 446.02 96.0827 446.044 97.6871C446.068 99.4901 446.044 99.641 446.868 99.8316C447.668 100.102 448.231 100.173 448.231 100.999C448.231 101.825 447.573 101.976 445.799 101.976C443.485 102 441.711 101.976 441.711 100.904L441.718 100.92ZM453.198 90.3798C453.079 87.8144 451.812 86.0352 449.522 86.1067C447.066 86.2258 445.997 88.5213 446.115 90.5943C446.258 93.5966 447.676 95.0343 449.934 94.9628C452.144 94.8913 453.317 92.985 453.198 90.3798Z" fill="#323E81"/></g><defs><clipPath id="clip0_43_384"><rect width="471" height="102" fill="white"/></clipPath></defs></svg>